<mxfile host="app.diagrams.net" agent="Mozilla/5.0 (Macintosh; Intel Mac OS X 10_15_7) AppleWebKit/537.36 (KHTML, like Gecko) Chrome/128.0.0.0 Safari/537.36" version="24.7.7">
  <diagram name="第 1 页" id="0yjeEngTQqA_D9xydlYo">
    <mxGraphModel dx="1085" dy="729" grid="1" gridSize="10" guides="1" tooltips="1" connect="1" arrows="1" fold="1" page="1" pageScale="1" pageWidth="827" pageHeight="1169" math="0" shadow="0">
      <root>
        <mxCell id="0" />
        <mxCell id="1" parent="0" />
        <mxCell id="T3hblJsC_VW6ChBZ5VcX-1" value="&lt;font style=&quot;font-size: 16px;&quot;&gt;A&lt;/font&gt;" style="ellipse;whiteSpace=wrap;html=1;aspect=fixed;fillColor=#E6E6E6;strokeWidth=2;strokeColor=#1A1A1A;" vertex="1" parent="1">
          <mxGeometry x="390" y="160" width="60" height="60" as="geometry" />
        </mxCell>
        <mxCell id="T3hblJsC_VW6ChBZ5VcX-2" value="&lt;font style=&quot;font-size: 16px;&quot;&gt;B&lt;/font&gt;" style="ellipse;whiteSpace=wrap;html=1;aspect=fixed;fillColor=#E6E6E6;strokeWidth=2;strokeColor=#1A1A1A;" vertex="1" parent="1">
          <mxGeometry x="320" y="250" width="60" height="60" as="geometry" />
        </mxCell>
        <mxCell id="T3hblJsC_VW6ChBZ5VcX-3" value="&lt;font style=&quot;font-size: 16px;&quot;&gt;C&lt;/font&gt;" style="ellipse;whiteSpace=wrap;html=1;aspect=fixed;fillColor=#E6E6E6;strokeColor=#1A1A1A;strokeWidth=2;" vertex="1" parent="1">
          <mxGeometry x="460" y="250" width="60" height="60" as="geometry" />
        </mxCell>
        <mxCell id="T3hblJsC_VW6ChBZ5VcX-4" value="&lt;font style=&quot;font-size: 16px;&quot;&gt;D&lt;/font&gt;" style="ellipse;whiteSpace=wrap;html=1;aspect=fixed;fillColor=#E6E6E6;strokeColor=#1A1A1A;strokeWidth=2;" vertex="1" parent="1">
          <mxGeometry x="250" y="340" width="60" height="60" as="geometry" />
        </mxCell>
        <mxCell id="T3hblJsC_VW6ChBZ5VcX-9" value="" style="endArrow=classic;html=1;rounded=0;entryX=0.2;entryY=1.025;entryDx=0;entryDy=0;entryPerimeter=0;strokeWidth=2;strokeColor=#1A1A1A;" edge="1" parent="1">
          <mxGeometry width="50" height="50" relative="1" as="geometry">
            <mxPoint x="369" y="252" as="sourcePoint" />
            <mxPoint x="398" y="219" as="targetPoint" />
          </mxGeometry>
        </mxCell>
        <mxCell id="T3hblJsC_VW6ChBZ5VcX-13" value="public" style="rounded=0;whiteSpace=wrap;html=1;strokeColor=none;strokeWidth=1;fontSize=15;fillColor=none;fontColor=#4D4D4D;" vertex="1" parent="1">
          <mxGeometry x="347" y="220" width="20" height="20" as="geometry" />
        </mxCell>
        <mxCell id="T3hblJsC_VW6ChBZ5VcX-17" value="" style="endArrow=classic;html=1;rounded=0;entryX=0.2;entryY=1.025;entryDx=0;entryDy=0;entryPerimeter=0;strokeWidth=2;strokeColor=#1A1A1A;" edge="1" parent="1">
          <mxGeometry width="50" height="50" relative="1" as="geometry">
            <mxPoint x="473" y="250" as="sourcePoint" />
            <mxPoint x="444" y="217" as="targetPoint" />
          </mxGeometry>
        </mxCell>
        <mxCell id="T3hblJsC_VW6ChBZ5VcX-19" value="" style="endArrow=classic;html=1;rounded=0;entryX=0.2;entryY=1.025;entryDx=0;entryDy=0;entryPerimeter=0;strokeWidth=2;strokeColor=#1A1A1A;" edge="1" parent="1">
          <mxGeometry width="50" height="50" relative="1" as="geometry">
            <mxPoint x="297" y="340" as="sourcePoint" />
            <mxPoint x="326" y="307" as="targetPoint" />
          </mxGeometry>
        </mxCell>
        <mxCell id="T3hblJsC_VW6ChBZ5VcX-21" value="public" style="rounded=0;whiteSpace=wrap;html=1;strokeColor=none;strokeWidth=1;fontSize=15;fillColor=none;fontColor=#4D4D4D;" vertex="1" parent="1">
          <mxGeometry x="481" y="219" width="20" height="20" as="geometry" />
        </mxCell>
        <mxCell id="T3hblJsC_VW6ChBZ5VcX-22" value="public" style="rounded=0;whiteSpace=wrap;html=1;strokeColor=none;strokeWidth=1;fontSize=15;fillColor=none;fontColor=#4D4D4D;" vertex="1" parent="1">
          <mxGeometry x="275" y="311" width="20" height="20" as="geometry" />
        </mxCell>
      </root>
    </mxGraphModel>
  </diagram>
</mxfile>
